<svg version="1.2" xmlns="http://www.w3.org/2000/svg" viewBox="0 0 256 256" width="256" height="256">
	<title>logo-reversed</title>
	<style>
		.s0 { fill: #ffffff } 
	</style>
	<g>
		<g id="Layer_1">
			<path class="s0" d="m227.1 105.9v-0.5c0-6.5-5.3-11.8-11.8-11.8h-0.5c-2.7 0-5 0.8-6.9 2.1l-58.8-33.8v-1.4c0-6.5-5.2-11.8-11.8-11.8h-0.5c-6.6 0-11.8 5.3-11.8 11.8v1.4l-58.9 33.8c-0.7-0.5-1.3-0.7-2.1-1.3v-68.3c4.2-1.8 7.1-6 7.1-11 0-5-5.5-12.1-12.1-12.1-6.6 0-12.1 5.2-12.1 12.1 0 6.9 2.9 9.2 7.1 11v68.6c-4.2 1.8-7.1 6-7.1 10.7v0.5c0 4.8 2.9 9 7.1 10.8v67.8c-4.2 1.8-7.1 6-7.1 10.8v0.5c0 6.5 5.2 11.8 11.8 11.8h0.5c2.6 0 5-0.8 6.8-2.1l58.9 33.8v1.4c0 6.5 5.2 11.8 11.8 11.8h0.5c6.5 0 11.8-5.3 11.8-11.8v-1.4l58.8-33.8c1.9 1.3 4.2 2.1 6.9 2.1h0.5c6.5 0 11.8-5.3 11.8-11.8v-0.3c0-4.7-2.9-8.9-7.1-10.8v-67.7c4.2-1.9 7.1-6.1 7.1-11.1zm-17.1 76.7c-5.5-9.2-15-19.2-26.8-28.9-2.6 2.1-5.5 4.2-8.2 6.3 15 12.1 24.5 23.7 28.4 31.5-0.2 1.3-0.5 2.6-0.5 4v1.3l-58.8 34.1c-1.6-1-3.2-1.8-5.3-2.1-7.3-12.4-14.4-40.2-14.4-78 0-37.8 0.2-11.5 0.5-16.8-3.5-1.6-6.6-3.1-9.7-4.7-0.5 7.1-0.8 14.1-0.8 21.5 0 30.5 4.7 61.2 13.6 79.1l-54-31.3c10 0 23.4-3.1 38-8.9-0.5-3.4-0.7-6.8-1.3-10.2-19.4 7.9-34.1 10.2-42.3 8.6-1.3-1.6-2.8-2.8-4.7-3.7v-67.5c1.9-0.8 3.5-2.1 4.7-3.7 12.1-2.3 40.5 4.5 76.2 25.8 4.7 2.9 9.2 5.8 13.4 8.6 2.8-2.1 5.8-4.2 8.6-6.3-5.5-3.7-11-7.3-16.8-11-29.4-17.6-57.5-27.5-75.9-27.8l54.1-31.3c-4.7 9.4-8.4 22.3-10.5 37 3.1 1.4 6.3 2.7 9.4 4.3 2.6-18.7 7.4-32.4 11.8-40 1.9-0.2 3.7-1 5.3-2.1l58.8 34.2v1.3c0 1.3 0.3 2.6 0.5 3.7-6 12.6-26.3 33.1-58.6 52.5-5 3.1-10 5.8-14.7 8.2 0.3 3.7 0.5 7.3 1 10.7q9.5-4.7 19-10.2c26-15.5 49.6-35.2 60.1-52.3v64.1h-0.3z"/>
			<g>
				<path class="s0" d="m301.7 190.8c-4-2.1-7.9-5.6-11.8-10.7v12.3h-12.3v-109.9h12.3v42.7c4-5.2 8-8.8 11.9-10.8 4-2 8.6-3.1 14.1-3.1 5.5 0 13.4 1.8 18.6 5.2q8 5.2 12.4 14.6c2.9 6.3 4.4 13.5 4.4 21.6 0 8.1-1.5 15.2-4.4 21.4q-4.4 9.4-12.5 14.5c-5.3 3.5-11.6 5.2-18.5 5.2-7 0-10.3-1-14.3-3.1zm26-11.6c3.7-2.6 6.5-6.3 8.5-10.9 2-4.6 3-9.8 3-15.5 0-5.8-1-11.1-3-15.7-1.9-4.6-4.8-8.2-8.5-10.9-3.7-2.6-8-3.9-12.9-3.9-4.8 0-9.2 1.3-13 3.9-3.9 2.6-6.9 6.3-9 10.9q-3.3 6.9-3.3 15.7c0 5.8 1.1 11 3.3 15.6 2.1 4.7 5.2 8.3 9 10.9q5.7 3.9 13 3.9c4.9 0 9.2-1.3 12.9-4z"/>
				<path class="s0" d="m384.1 188.5c-5.9-3.5-10.5-8.4-13.7-14.6-3.3-6.3-4.9-13.3-4.9-21.1 0-7.8 1.5-14.2 4.6-20.5 3.1-6.3 7.5-11.3 13.3-15.2 5.8-3.8 12.7-5.7 20.6-5.7 7.8 0 13.1 1.5 18.9 4.6 5.9 3.1 10.6 7.5 14.1 13.4q5.4 8.9 5.4 21.3v4.3h-64.8c0.2 2.8 0.7 5.4 1.6 7.9q3 9.2 9.7 14.7c4.4 3.6 9.5 5.4 15.2 5.4 5.6 0 10.7-1.5 14.8-4.6q6.1-4.6 8.9-11.6h13.1q-3.9 12.1-13.2 19.6c-6.3 5-14.1 7.5-23.5 7.5-9.5 0-14.2-1.8-20.1-5.4zm45.1-44.3c-0.2-2.9-0.8-5.5-1.7-7.8-2-4.5-5.2-8-9.3-10.5-4.2-2.5-8.9-3.7-14.1-3.7-5.2 0-9.9 1.2-13.9 3.7-4 2.5-7.1 6-9.3 10.5q-1.4 3.2-2.3 7.8h50.5z"/>
				<path class="s0" d="m466.9 186.7q-9.5-7.2-11.6-19.9h12.8c1.1 5.1 3.6 9.1 7.5 12q5.8 4.3 16 4.3c6.9 0 10-1.1 13.4-3.2q5-3.1 4.9-9.1c0-3.9-0.9-5.5-2.9-7.4-2-1.8-4.5-3.3-7.5-4.3-3-0.9-7-1.9-12-2.8-6.3-1.3-11.3-2.5-15.1-3.8q-5.6-2-9.7-6.3c-2.6-2.9-4-6.9-4-11.9 0-7.2 2.7-12.9 8.2-16.9 5.4-4 12.3-6 20.8-6 8.4 0 15.8 2.2 21.6 6.7 5.7 4.6 9.3 10.8 10.7 18.6h-11.4c-1.2-4.9-3.6-8.5-7.2-10.9q-5.5-3.6-13.7-3.6c-5.5 0-9.4 1-12.3 3q-4.4 2.9-4.4 8.1c0 3.5 0.9 4.9 2.7 6.3q2.7 2.4 6.7 3.6 4.1 1.2 11.4 2.7 9.7 1.8 15.7 3.9 6.1 2.1 10.4 6.8 4.3 4.7 4.3 13c0 5.5-2.7 13.4-8 17.8q-8.1 6.6-22.7 6.6c-9.7 0-18.2-2.4-24.6-7.2z"/>
				<path class="s0" d="m543 181.4c-2.5-4.8-3.8-11.6-3.8-20.6v-48h12.3v48q0 12.7 4.6 17.8 4 4.5 12.3 4.5c5.5 0 10.9-2 14.5-5.9q3.9-4 5.5-11.1c1.1-4.7 1.7-11.1 1.7-19.3v-33.9h12.2v79.6h-12.2v-12.4c-3.9 4.9-7.6 8.4-11.3 10.6q-5.5 3.2-12.3 3.2c-11.1 0-19-4.1-23.5-12.5z"/>
			</g>
		</g>
	</g>
</svg>