<svg version="1.2" xmlns="http://www.w3.org/2000/svg" viewBox="0 0 300 300" width="300" height="300">
	<title>geth</title>
	<style>
		.s0 { fill: #157f71;stroke: #157f71 }
	</style>
	<path class="s0" d="m151.3 173.1v0.6l-0.7 1.6-2.4-0.7-0.7-1.8v-0.1m7.9 0.2l-0.7 1.7-2.3 0.7-0.7-1.6v-0.6m-56-14.4l-2-12.7m115 12.7l2-12.7m-33.7-75.4l1.7-0.6-0.1 0.5v0.7 0.6 0.8l0.1 0.9 0.2 0.9 0.2 0.9 0.2 0.7v0.4l-1.1 0.6m-0.5-0.3l1.1 0.6m-0.6-0.3h0.1m-1.2-6.6l0.2 0.1m2.5 2l1.7-0.6-0.1 0.6v0.6l0.1 0.7v0.8l-0.1 0.7 0.1 0.8 0.2 0.7 0.2 0.7 0.2 0.6-1.1 0.5m-0.4-0.2l1 0.6m8.2 6.8l-0.1-0.3-0.1-1v-1l0.1-1.1-0.1-0.6-0.1-0.6v-0.6l-0.1-0.6 0.1-0.6-0.4-0.3-1-0.9-1.1-0.9m-0.9-0.7l-0.6-0.6-1.3-0.9"/>
	<path class="s0" d="m183.3 74.4l-0.6-0.5-1.3-1m-0.9-0.6l-0.5-0.4-1.4-0.9m-1-0.6l-0.4-0.3-0.7-0.4-0.7-0.4-0.3 0.3m14.3 17.3l0.3-0.3-0.1-0.6-1-1-1.5-1.3-1.4-1.2"/>
	<path class="s0" d="m187.3 83.5l-0.1-0.1-0.8-0.7m0.2 0.1l1.1-0.5-0.3-0.4-0.4-0.6-0.1-0.7v-0.8l0.1-0.7 0.1-0.9-0.1-1v-0.9l-1.7 0.6m-2.7-2.3l1.6-0.6v0.4 0.8l0.1 0.8-0.1 0.7-0.1 0.7 0.1 0.8 0.2 0.6 0.2 0.6 0.3 0.6-1.1 0.6"/>
	<path class="s0" d="m183.6 80.5l0.8 0.5 0.2 0.2m-57.3-10.6l-1.6-0.6 0.1 0.5v0.7 0.6 0.8l-0.1 0.9-0.2 0.9-0.2 0.9-0.2 0.7-0.1 0.4 1.2 0.6m1-6.6l-0.2 0.1m-1.4 6.8l1.1-0.6m-0.5 0.3h-0.1m-1.6-4.5l-1.6-0.6 0.1 0.6-0.1 0.6v0.7 0.8 0.7l-0.1 0.8-0.1 0.7-0.2 0.7-0.2 0.6 1.1 0.5m-0.6 0.4l1-0.6m-0.4 0.2m-4.4-1.7l-1.6-0.6v0.5l-0.1 0.9 0.1 0.9 0.1 0.9v0.7l-0.1 0.8-0.2 0.5-0.3 0.6-0.2 0.2 1.1 0.5m0.2-0.1l-0.8 0.7-0.1 0.1"/>
	<path class="s0" d="m114.6 85.8v-0.3l0.2-1v-1l-0.1-1.1v-0.6l0.1-0.6 0.1-0.6v-0.6-0.6l0.3-0.3 1-0.9 1.2-0.9m0.8-0.7l0.7-0.6 1.2-1m0.9-0.6l0.6-0.5 1.4-1m0.9-0.6l0.5-0.4 1.4-0.9m1.2-0.8l0.9-0.5 0.7-0.4 0.3 0.3m-1.8 0.6h-0.1m-12.4 16.7l-0.3-0.3 0.1-0.6 1-1 1.5-1.3 1.3-1.2m0 0l-0.1 0.1m2.7-2.1l-0.8 0.5-0.2 0.2"/>
	<path class="s0" d="m121.8 74.6l-1.7-0.6 0.1 0.4-0.1 0.8v0.8l0.1 0.7 0.1 0.7-0.1 0.8-0.2 0.6-0.3 0.8-0.2 0.4 1.1 0.6m9.4-14v-0.1l-0.7-0.9-0.3-0.6-0.2-0.7-0.1-0.6-0.2-0.7v-0.6l-0.1-0.5v-0.6l-0.1-1.1v-1.1-0.6-0.6-0.6l-0.1-0.7v-0.6-0.6-0.6-0.6-0.6-0.6-0.6-0.6-0.6-0.6-0.6-0.6-0.6-0.7-0.6-0.6-0.6-0.6-0.6-0.6-0.6-0.6-0.6-0.6-0.6-0.7-0.6-0.6-0.7-0.6-0.6-0.7-0.6-0.7-0.6-0.7-0.6-0.7-0.6-0.7-0.6-0.7-0.6l-0.1-0.7v-0.6-0.6-0.6-0.6-0.6-0.6-0.5-0.6-0.6-0.6-0.6-0.6-0.6-0.6-0.5-0.6-0.6-1.1-1-1-0.5"/>
	<path class="s0" d="m128.8 15l0.4 0.1 0.2 0.4v1 1 1.1 1.1 0.6 0.6 0.6 0.5 0.6 0.6 0.6 0.6 0.6 0.6 0.6 0.5 0.6 0.6l0.1 0.6v0.6 0.7 0.6 0.7 0.6 0.7 0.6 0.7 0.6 0.7 0.6 0.7 0.6 0.7 0.6 0.7 0.6 0.6 0.7 0.6 0.6 0.6 0.6 0.6 0.6 0.6 0.6 0.6 0.6 0.7 0.6 0.6 0.6 0.6 0.6 0.6 0.6 0.6 0.6 0.6 0.6 0.6 0.7 0.6 0.6 0.6 0.6l0.1 0.6v0.5 1.1l0.1 1.2v1l0.2 1.2 0.2 0.5 0.1 0.6 0.4 0.8 0.6 0.6 0.6 0.4m-2.7 1.9l-1 0.2-0.9 0.2-0.7 0.4-0.7 0.3-0.7 0.5-0.5 0.6-0.3 0.5-0.3 0.5 0.1 0.7m42.3 78.4l-0.4-0.8-0.4-0.7-0.5-0.8-0.6-0.6-0.6-0.6-0.6-0.6-0.7-0.5-0.7-0.5-0.7-0.5-0.7-0.4-0.9-2-0.6-1.3m11-29l-0.1 0.2-0.2 0.5-0.4 0.7-0.3 0.7-0.5 0.9-0.3 0.8-0.4 0.7-0.3 0.6-0.3 0.6-0.2 0.6-0.8 0.5h-1-1.1-1-1-1-0.9-0.9-0.8-0.8-0.7l-0.7-0.1h-0.7-0.6-0.6-0.6l-0.3-0.4v-0.8-0.7-0.6-0.8l-0.1-0.8v-0.9-1-1-1l-0.1-0.8"/>
	<path class="s0" d="m169.3 113.7l0.1-0.2 0.3-0.6m0 0l-0.3 0.4m8.6-3.1l0.1-0.7v-0.6l0.1-0.7 0.1-0.7-0.1-0.9-0.1-0.8v-0.9l-0.1-0.8-0.1-0.8v-0.8l-0.1-0.8v-0.8l-0.1-0.8-0.1-0.7v-0.8l-0.1-0.7v-0.7l-0.1-0.7v-0.7l-0.4-0.4-0.7-0.2-0.7-0.1-0.6-0.1-0.6-0.1h-0.6-0.8l-0.6-0.4"/>
	<path class="s0" d="m172.6 94.8l-0.3-1.1-0.1-0.7m-0.7-15l0.3 0.1 0.7 0.1 0.7 0.2 0.7 0.1 0.7 0.1 0.7 0.2 0.7 0.1 0.3-0.3 0.1-0.7v-0.6l0.1-0.7v-0.6-0.9l-0.2-1-0.2-0.9-0.1-0.9-0.2-0.9-0.1-0.8-0.2-0.7-0.1-0.6-0.1-0.8-0.1-0.6-0.1-0.6v-0.6l-0.4-0.1-0.6-0.1-0.7-0.1-0.6-0.1-0.6-0.1h-0.8-0.7-0.2m-4.2 51h0.6l0.5-0.4 0.3-0.5 0.3-0.6 0.3-0.5 0.4-0.7 0.4-0.7 0.4-0.7 0.5-0.9 0.5-0.8 0.5-0.9 0.5-1 0.3-0.5v-0.6l0.1-0.7v-0.8-0.7-0.2m0-1.3v0.1 0.6 0.6"/>
	<path class="s0" d="m171.9 106l0.5-0.4 0.3-0.8v-0.9l-0.1-1v-0.9-1l-0.1-0.9v-0.9l-0.1-0.9v-0.9l-0.1-0.8v-0.9-1l-0.1-1-0.1-1.1v-0.7-0.6-0.7l-0.1-0.7v-0.8-0.8l-0.1-0.9v-0.9l-0.1-1v-1-1l-0.1-1v-1.1l-0.1-1.1v-1.2l-0.1-1.1v-1.1l-0.1-1.2v-1.1l-0.1-1.1v-1l-0.1-0.7-0.1-0.7-0.1-0.6-0.1-1.1-0.2-1-0.1-1-0.2-0.9-0.1-0.8-0.1-0.7-0.1-0.6-0.1-0.7-0.1-0.6-0.5-0.4-0.9-0.4-0.7-0.1h-0.6-0.7l-0.6-0.1h-0.6-0.6-0.7l-0.6-0.1h-0.6-0.5l-0.6-0.1h-1.1l-1-0.1h-1l-0.9-0.1h-0.8l-0.8-0.1h-0.7-0.7l-0.7-0.1h-0.7m-0.1 4.8v-0.3-0.8-0.7-0.8l0.1-0.6v-0.6-0.6m0 0v1.5 0.7 0.9 1 1 1.1 0.6 0.6 0.6 0.7 0.8 1 1.1 1.1 1.2 1.2 1.1 1.2 1.1 1.1 1 1.1 1 1 0.9 0.9 0.8 0.8 0.7 0.7 0.7 0.6 0.6 1.1 1 0.9 0.9 0.9 0.9 0.9 1 0.9 1 0.9 1 1l0.1 0.6v0.6 0.7 0.8 0.6 0.7l0.1 0.9v0.9 0.9 0.8 0.8 0.8l0.1 0.6v0.6 0.7 0.6 0.6l0.5 0.4h0.2"/>
	<path class="s0" d="m153.3 66.1v0.1l-0.1 0.6-0.1 0.3m-0.2 11.7v1.3m0.2 26.2v-0.2-0.6-0.7l0.1-0.8v-0.6l0.1-0.6v-0.7-0.4m-9.7 15.6h-0.5-0.9-1-1.1-1-0.4"/>
	<path class="s0" d="m139.1 117.3h-0.6-1l-0.4-0.4-0.3-0.6-0.3-0.6-0.3-0.5-0.4-0.6-0.4-0.7-0.4-0.8-0.5-0.8-0.5-0.9-0.6-0.9-0.5-1-0.3-0.5v-0.6-0.7-0.8-0.7l-0.5-0.3-0.4-0.4v-0.7-0.9l0.1-1v-0.9l0.1-1v-0.9l0.1-0.9v-0.9-0.9l0.1-0.8v-0.9l0.1-1v-1l0.1-1.1v-0.7-0.6l0.1-0.7v-0.7-0.8l0.1-0.8v-0.9-0.9l0.1-1v-1l0.1-1v-1-1.1l0.1-1.1v-1.2l0.1-1.1v-1.2l0.1-1.1v-1.1l0.1-1.1v-1l0.1-0.7 0.1-0.7 0.1-0.6 0.1-1.1 0.2-1 0.1-1 0.1-0.9 0.2-0.8 0.1-0.7v-0.6l0.1-0.7 0.2-0.6 0.4-0.4 1-0.4 0.6-0.1h0.7 0.6l0.7-0.1h0.6 0.6 0.6l0.6-0.1h0.6 0.6l0.6-0.1h1.1l1-0.1h0.9l0.9-0.1h0.9l0.7-0.1h0.8 0.7l0.7-0.1h0.7v0.5 2.1l0.1 0.5v0.7l0.1 0.6v0.8 0.6"/>
	<path class="s0" d="m132.5 104.7v0.1l0.1 0.6v0.6 0.3m-0.8-0.7v0.2l-0.1 0.5m0.6-14.2l-0.1 0.9-0.2 1.1-0.1 0.6"/>
	<path class="s0" d="m131.9 94.5l-0.1 0.4h-0.7-0.7-0.6l-0.7 0.1-0.6 0.2-0.7 0.1-0.7 0.1v0.4l-0.1 0.7v0.7l-0.1 0.7-0.1 0.7v0.8l-0.1 0.7v0.8l-0.1 0.8v0.8l-0.1 0.8-0.1 0.8v0.8l-0.1 0.9-0.1 0.8v0.9 0.6l0.1 0.6 0.1 0.7v0.6l0.1 0.2m25-30.1v-0.3-0.8-0.2m-0.4-16.9v0.8 0.8 0.7 0.8 0.9 1 1.1 1.1 1.2 0.7 28.3 0.9 2.9 0.9 1 0.6 0.5 2.5 0.6 0.9 0.9l-0.1 0.9v0.8 0.8"/>
	<path class="s0" d="m151 113.2v0.3 0.8 0.6 0.8l-0.1 0.6v0.6l-0.6 0.4h-0.8-0.6-0.6-0.7-0.7-0.7-2.8m-9.1-5.3l0.1 0.1 0.3 0.5m0 0l-0.2-0.2m0.1 0.2l0.5 0.8m-0.4-0.6l-0.1-0.2m0.5 0.8l-0.3-0.5m-0.2-0.4l0.1 0.2m0.2 0.4l0.2 0.4m0 0l-0.1-0.2"/>
	<path class="s0" d="m134.9 113.1l0.2 0.4 0.4 0.8 0.4 0.9 0.4 0.8 0.3 0.7 0.3 0.6 0.3 0.6 0.3 0.6 0.7 0.5h1.1 1 1.1 1 0.9 1 0.9 0.8 0.8l0.7-0.1h0.7 0.6 0.6 0.7 0.6l0.3-0.4v-0.8-0.7-0.6-0.8-0.8-0.9-1l0.1-1v-1-0.8m0.1-26.9v0.8m0 0v-0.9m0-0.2v1 0.3"/>
	<path class="s0" d="m151.2 83.8v1 0.9 1 0.8 1 0.9 0.8 5.9 0.9 0.9 0.9 0.9 0.8 1 0.4m0-0.1v0.2 0.9"/>
	<path class="s0" d="m151.2 102.6v0.3l0.1 0.5"/>
	<path class="s0" d="m151.2 103.1l0.1 0.4v0.5"/>
	<path class="s0" d="m151.3 103.8v0.2 0.7 0.7m0 0v-1"/>
	<path class="s0" d="m151.3 104.9v0.4 0.7 0.2m0-0.8v-0.4m0 0v0.2m-17.7-38.9l0.4-0.1m-0.3 0.1h-0.1m-0.7 11.7l-0.3 0.1-0.7 0.1-0.7 0.2-0.7 0.1-0.7 0.1-0.7 0.2-0.7 0.1-0.3-0.3-0.1-0.7v-0.6l-0.1-0.7v-0.6-0.9l0.2-1 0.2-0.9 0.1-0.9 0.2-0.9 0.1-0.8 0.1-0.7 0.1-0.6 0.2-0.8 0.1-0.6v-0.6l0.1-0.6 0.3-0.1 0.7-0.1 0.6-0.1 0.7-0.1 0.5-0.1h0.8l0.6 0.1m-41.9 43.6l-0.5 0.1-0.7 0.2-0.6 0.2-0.6 0.3-0.4 0.5-0.2 0.6-0.1 0.7-0.2 0.9-0.1 0.8-0.1 0.6-0.1 0.8v0.7l-0.2 0.9v0.8l-0.1 0.7-0.1 1-0.2 0.9v0.5l-0.1 0.7-0.1 0.6-0.1 0.6v0.6l-0.1 0.6-0.1 0.7v0.6 0.6l0.1 0.7 0.1 0.6 0.3 0.6 0.3 0.7 0.4 0.6 0.4 0.6 0.5 0.7 0.6 0.6 0.7 0.7 0.8 0.6 0.9 0.7 0.5 0.3 0.5 0.3 0.6 0.3 0.6 0.4 0.5 0.3 0.7 0.3 0.6 0.3 0.6 0.3 0.7 0.3 0.7 0.3 0.7 0.3 0.6 0.3 0.7 0.2 0.7 0.3 0.7 0.3 0.7 0.2 0.6 0.2 0.7 0.3 0.6 0.2 0.6 0.2 0.6 0.2 0.6 0.2 0.6 0.2 0.6 0.1 0.6 0.2 1 0.3 1 0.3 1 0.2 0.9 0.2 0.8 0.2 0.8 0.1 0.7 0.2 0.7 0.1 0.7 0.1 0.6 0.1 0.6 0.1h0.6l0.6 0.1 0.6 0.1 0.6 0.1h0.6l0.5 0.1 0.6 0.1h0.6l0.6 0.1 0.5-0.1 0.2-0.6-0.1-0.7v-0.7-0.7l-0.1-0.8m-34-9.2l0.2 0.4m0 0l-0.2-0.3"/>
	<path class="s0" d="m122.4 135.8v0.2l-0.1 0.8v0.7l-0.1 0.7 0.1 0.7v0.2"/>
	<path class="s0" d="m122.4 136v-0.3l0.1-0.8 0.2-0.7v-0.2"/>
	<path class="s0" d="m122.7 134.2l0.1-0.3 0.1-0.6"/>
	<path class="s0" d="m122.8 133.5l0.1-0.3 0.2-0.8 0.2-0.7"/>
	<path class="s0" d="m123.2 132.1l0.1-0.4 0.3-0.7 0.2-0.7-0.1-0.6-0.4-0.5-0.3-0.1m0.2 0.1l-0.2-0.1-0.6-0.1h-0.3"/>
	<path class="s0" d="m122.4 129l-0.3-0.1-0.5-0.1m0.1 0.1l-0.1-0.1-0.6-0.1h-0.3"/>
	<path class="s0" d="m121 128.7h-0.3l-0.5-0.1-0.6-0.1-0.6-0.1-0.6-0.1-0.6-0.2-0.6-0.1-0.6-0.1-0.6-0.1-0.7-0.1-0.7-0.1-0.7-0.2-0.8-0.1-0.9-0.2-0.9-0.2-0.9-0.2-1-0.2-1-0.3-0.6-0.2-0.5-0.2-0.6-0.1-0.6-0.2-0.6-0.2-0.6-0.3-0.6-0.2-0.7-0.2-0.6-0.3-0.7-0.3-0.6-0.2-0.6-0.3-0.7-0.3-0.6-0.2-0.6-0.3-0.6-0.3-0.6-0.3-0.6-0.3-0.5-0.3-0.6-0.2-1-0.6-0.9-0.5-0.8-0.5-0.7-0.6"/>
	<path class="s0" d="m93 119.3l-0.1-0.2-0.7-0.5-0.5-0.6-0.5-0.6-0.4-0.7-0.3-0.6-0.1-0.3m90.8 26.2l0.4 0.5 0.6 0.1 0.6-0.1 0.6-0.1 0.7-0.1 0.6-0.1 0.6-0.1 0.6-0.1 0.6-0.1 0.7-0.1h0.6l0.6-0.1 0.7-0.1 0.7-0.2 0.7-0.1 0.7-0.1 0.8-0.2 0.9-0.2 0.9-0.2 1-0.3 1-0.2 1-0.3 0.6-0.2 0.6-0.2 0.6-0.2 0.5-0.2 0.7-0.2 0.6-0.2 0.6-0.2 0.7-0.2m15.6-11.2l0.1-0.2 0.1-0.7v-0.6l-0.1-0.6v-0.7l-0.1-0.6-0.1-0.7-0.1-0.5v-0.6l-0.1-0.7-0.1-0.5-0.1-0.8-0.1-0.9v-0.4"/>
	<path class="s0" d="m216.7 118.7l-0.1-0.3-0.1-0.8v-0.8l-0.1-0.7"/>
	<path class="s0" d="m216.4 116.2l-0.1-0.3v-0.7l-0.1-0.7-0.1-0.7-0.1-0.6-0.1-0.7-0.1-0.6-0.2-0.6-0.2-0.5-0.6-0.3-0.8-0.3-0.8-0.2-0.4-0.1m-114.6-8.1v-0.1l-0.1-1.5v-1.6l-0.1-1.4v-0.7m0-13.4l0.1-0.3v-0.5l0.2-0.9 0.1-0.7 0.3-0.6 0.4-0.5 0.4-0.5 0.4-0.5 0.4-0.6 0.6-0.2 1 0.9 1 0.8 0.8 0.6"/>
	<path class="s0" d="m103 79.6l1 0.8 1 0.8 1 0.8 0.9 0.8 1 0.8 0.9 0.7 0.8 0.8 0.7 0.6"/>
	<path class="s0" d="m109.8 85.3l0.8 0.7 0.8 0.8 0.5 0.4"/>
	<path class="s0" d="m111.6 87l0.9 0.7 0.1 0.2m-12.1 15.9l-0.1-0.9v-1.5-1.5l-0.1-1.5v-1.4l-0.1-1.4v-1.4-1.3l-0.1-1.2v-1.2l-0.1-1.2v-1l-0.1-1v-0.9-0.9l-0.1-0.7v-0.7l-0.1-0.6v-1.1l-0.1-0.8-0.2-0.7-0.1-0.6-0.1-0.1m106 0l-0.1 0.1-0.2 0.6-0.1 0.7-0.1 0.8-0.1 1.1v0.6l-0.1 0.7v0.7 0.9l-0.1 0.9v1l-0.1 1v1.2 1.2l-0.1 1.2v1.3l-0.1 1.4v1.4 1.4l-0.1 1.5v1.5l-0.1 1.5v0.9m-12.1-15.9l0.1-0.2 0.8-0.7"/>
	<path class="s0" d="m192.4 87.3l0.5-0.5 0.8-0.8 0.9-0.7"/>
	<path class="s0" d="m194 85.8l0.7-0.7 0.9-0.8 0.9-0.7 0.9-0.8 1-0.8 1-0.8 1-0.8"/>
	<path class="s0" d="m200.2 80.5l0.3-0.2 1-0.8 1-0.8 1-0.9 0.6 0.2 0.4 0.6 0.4 0.5 0.4 0.5 0.4 0.5 0.2 0.6 0.2 0.6 0.1 1 0.1 0.5v0.3m0 13.4v0.7 1.4l-0.1 1.6v1.5 0.1m-94 7l-0.3-0.1-0.3 0.5 0.2 0.6 0.5 0.4 0.4 0.2m-1 4l-0.5-0.2-0.5-0.3-0.2-0.8h0.5m0 3.9l-0.4-0.2-0.7-0.3-0.1-0.7 0.3-0.4h0.3m-0.3-8.9v-0.1h-0.3l-0.1 0.5-0.2 0.6-0.2 0.6-0.2 0.6 0.3 0.2 0.7 0.5 0.5 0.3m0 0h-0.1m40.5 10.2v-0.1m-2.5 0.2v0.2m29 23.7l-1-0.1m0 0l1.1-0.4v-0.5l-0.1-0.8v-1.1l-0.1-0.6"/>
	<path class="s0" d="m177.3 141.2l0.1-0.2-0.1-0.8v-1l-0.1-1v-0.1m-0.3 0.8v-0.9l-0.1-1v-1-0.1m-0.6 0.7v-0.1-0.8l-0.1-1v-1-0.1m-0.8 0.7v-0.6-1l-0.1-1v-0.1m-1 0.6v-0.6l-0.1-1v-1-0.1m-1.5 0.3l0.1-0.1m0 0l-0.1 0.1m-11.8-8.6v0.1m-2.4-0.8v0.1m-12.4-0.1l0.1 0.1m0 0l-0.1-0.1m-2.3 0.8l-0.1-0.1m-13.2 8.3v0.1l-0.1 1v1l-0.1 0.6m-1-0.6v0.1 1l-0.1 1v0.6m-0.8-0.7v0.1 1l-0.1 1v0.6 0.3m-0.5 1.6h-0.1m0 0h0.1m0-2.3v0.1l-0.1 1v1l-0.1 0.6v0.3m-0.3-0.8v0.1 1l-0.1 1v0.6 0.4m-0.1-0.8v0.2l-0.1 1v1l-0.1 0.6m0 0l0.4-1.2 0.2-0.3m23.8-19.1l-0.2 1m0 0l0.2-1m-2.5 0.2l-0.1 1m0 0l-0.1-1m27.2 33.4l0.1-0.1 0.5-0.5v-0.6-0.7-0.1"/>
	<path class="s0" d="m176.2 154.5v-0.2l0.4-0.5 0.4-0.5v-0.7-0.6-0.2m-0.1 1.7l-0.5-0.3m0 0l0.6 0.1"/>
	<path class="s0" d="m176.8 152.2v-0.2l0.4-0.5 0.3-0.6v-0.7l-0.1-0.6v-0.4m0 1.9l-0.7-0.2m0 0h0.8"/>
	<path class="s0" d="m177.2 149.7v-0.2l0.4-0.6 0.1-0.6v-0.7-0.6l-0.1-0.3m0.1 2l-0.9-0.2m0 0h0.9"/>
	<path class="s0" d="m177.3 147.3l0.1-0.2 0.3-0.6 0.1-0.5-0.1-0.8v-0.6l-0.2-0.4"/>
	<path class="s0" d="m127.1 147.3v-0.2l-0.3-0.6-0.1-0.4h1.1l-0.1 0.5v0.9 1.1 1.6l0.1 1.2 0.2 1.4 0.2 1.2 0.3 1.1 0.3 1.3 0.4 1.1 0.5 1.1 0.4 1 0.6 1.1 0.6 1 0.6 0.9 0.7 1 0.8 0.9 0.7 0.9 0.9 0.8 0.9 0.9 0.9 0.7 0.9 0.7 1 0.7 1 0.6 1.1 0.6 1 0.5 1.1 0.4 1.1 0.4 1.2 0.4 1.1 0.3 1.2 0.3 1.2 0.2 1.1 0.1 1.2 0.1h1.2 1.2l1.2-0.1 1.2-0.1 1.2-0.2 1.1-0.3 1.2-0.3 1.1-0.4 1.1-0.4 1.1-0.4 1.1-0.5 1-0.6 1-0.6 1-0.7 1-0.7 0.9-0.7 0.8-0.8 0.9-0.9 0.8-0.9 0.7-0.9 0.7-1 0.7-0.9 0.6-1 0.5-1.1 0.5-1 0.4-1.1 0.4-1.1 0.3-1.1 0.4-1.3 0.2-1.2 0.1-1.1 0.2-1.5v-1.2-1.5l-0.1-0.9v-0.5h1.1m-1.1 0l1 0.2m-0.5-1.4v-0.2l0.3-0.6v-0.5-0.8l-0.1-0.6-0.3-0.5m-0.2 0.9v-0.2l0.2-0.7v-0.6l-0.1-0.6-0.1-0.7-0.5-0.5v-0.1l-1.1 0.1m0 0l1-0.3m0.7 2.3l-1 0.2m0 0h1.1"/>
	<path class="s0" d="m176.3 140.1v-0.2l0.1-0.7-0.1-0.6v-0.6l-0.3-0.7-0.5-0.4h-0.1l-1 0.3m0 0l1-0.5"/>
	<path class="s0" d="m175.4 137.8v-0.2l0.1-0.5-0.1-0.8v-0.6l-0.4-0.6-0.5-0.4-0.3-0.1-0.9 0.5m0 0l1-0.3"/>
	<path class="s0" d="m174.3 135.7v-0.2-0.6-0.7l-0.1-0.6-0.4-0.6-0.6-0.3-0.2-0.7-0.3-0.7-0.5-0.4-0.6-0.2-0.1-0.6-0.3-0.6-0.6-0.4-0.6-0.2-0.3-0.6-0.3-0.6-0.6-0.2-0.6-0.2-0.3-0.6-0.4-0.5-0.7-0.2-0.6-0.1-0.4-0.5-0.4-0.6-0.7-0.1-0.6-0.1-0.4-0.4-0.5-0.5-0.7-0.1h-0.7l-0.4-0.4-0.6-0.4-0.7-0.1-0.6 0.1-0.5-0.4-0.6-0.3h-0.7l-0.6 0.1-0.5-0.3-0.6-0.3-0.6-0.1-0.7-0.1h-0.6l-0.6-0.1-0.7 0.2-0.6 0.3-0.5-0.3-0.7-0.1-0.7 0.2-0.5 0.3-0.6-0.2-0.7-0.1-0.7 0.3-0.5 0.3-0.6-0.1h-0.7l-0.6 0.3-0.5 0.4-0.6-0.1-0.7 0.1-0.6 0.4-0.4 0.4h-0.6l-0.7 0.1-0.5 0.5-0.4 0.4-0.6 0.1-0.7 0.1-0.5 0.6-0.3 0.5-0.6 0.1-0.7 0.2-0.4 0.5-0.3 0.6-0.6 0.2-0.6 0.2-0.4 0.6-0.2 0.6-0.6 0.2-0.6 0.4-0.3 0.6-0.2 0.6-0.5 0.2-0.6 0.4-0.2 0.7-0.1 0.6-0.6 0.3-0.5 0.4-0.1 0.6-0.1 0.7v0.6 0.5m42.7-3.1l-0.9 0.6m0 0l1-0.4m-1.7-2.1l-0.8 0.7m0 0l1-0.5m-1.8-1.8l-0.9 0.6m0 0l0.7-0.7m-1.7-1.4l-0.8 0.7m0 0l0.6-0.9m-2.1-1.3l-0.5 0.9m0 0l0.7-0.8m-2.4-1.3l-0.5 1m0 0l0.7-0.9m-2.5-1l-0.4 1m0 0l0.6-0.9m-2.4-0.7l-0.5 0.9m0 0l0.3-1m-12.5 0l0.3 1m0 0l-0.1-1m-2.6 0.7l0.3 1m0 0l-0.1-1.1m-2.3 0.9l0.2 1m0 0l-0.4-0.9m-2 1.1l0.3 0.9m0 0l-0.6-0.8m-1.8 1.2l0.4 0.9m0 0l-0.6-0.8m-2 1.6l0.7 0.7m0 0l-0.5-0.9m-2 1.9l0.8 0.7m0 0l-0.6-0.9m-1.7 2.1l0.8 0.6m0 0l-0.7-0.8m-1.4 2l0.8 0.7"/>
	<path class="s0" d="m131.2 135.1l-1.2-0.4-0.6 0.4-0.3 0.6-0.1 0.6v0.6 0.7 0.2m0.2-1.3l0.9 0.6m0 0l-1-0.4"/>
	<path class="s0" d="m129 136.9l-0.6 0.4-0.3 0.6v0.7 0.5l0.1 0.8v0.2m-0.1-1.1l1 0.3m0 0l-0.9-0.5m-0.1 0.4l-0.1 0.1-0.4 0.5-0.2 0.6v0.7 0.6l0.2 0.7v0.2m-0.1-1.5l0.9 0.4m0 0l-1-0.2m-0.4 2.1l1 0.4m0 0l-1.1 0.1 0.1 0.4 0.2 0.6m-0.2-0.7l-0.1 0.2-0.1 0.5-0.1 0.8v0.4m1.1 0l-1.1-0.3m0.1 1v-0.1m0 0v0.7l-0.1 0.6v0.5m0-0.2l1 0.1m0 0l-1 0.3 0.3 0.4 0.3 0.6"/>
	<path class="s0" d="m127 149.2v0.2 0.6l-0.1 0.6 0.1 0.3 0.8-0.1m0 0l-0.9-0.1m0.1 0.2v0.2l0.4 0.6 0.2 0.5"/>
	<path class="s0" d="m127.5 151.8v0.6l-0.1 0.6 0.1 0.3"/>
	<path class="s0" d="m131.3 122.1l-0.1 0.2-0.8 1-0.8 1-0.7 1.1-0.6 1.1-0.6 1.2-0.6 1.2-0.4 1.2-0.5 1.2-0.2 0.6-0.3 1.2-0.3 1.3-0.2 1.3-0.1 0.6-0.2 1.3-0.1 1.3v1l-0.1 1.7 0.1 1.3 0.1 1.3 0.1 1.3 0.3 1.3 0.3 1.3 0.3 1.2 0.5 1.3 0.5 1.2 0.5 1.2h0.6"/>
	<path class="s0" d="m128 153l-0.5 0.5 0.3 0.3 0.4 0.5 0.1 0.2"/>
	<path class="s0" d="m128.2 154.2v0.1l-0.1 0.6 0.1 0.7 0.4-0.1m-0.5-0.1l0.4-0.1m-0.3 0.3l0.1 0.2 0.5 0.4m0.3 0.9l0.1 0.7 0.1-0.1m-0.2-0.1h0.1m0 0.2l0.1 0.2 0.2 0.2m45.5 0l0.1-0.5m0.2 0.1l0.1-0.2v-0.5m0.5-1.6l0.4 0.1m-0.4 0l0.3 0.2m14.9-72.2v-0.3l-0.1-0.8v-0.1m20.2 58l-0.1 0.1-0.6-0.4m-115.6-0.7v0.1l-0.7 0.4-0.7 0.4-0.4 0.1m118.4-0.1l0.3-0.4 0.6-0.6 0.4-0.3"/>
	<path class="s0" d="m212.7 139.1l0.3-0.3 0.7-0.6 0.1-0.2m-0.4-23.8v-0.4l-0.3-1.5-0.1-1.1-0.2-1.2-0.2-1.1-0.2-1.1m-6.2 35.3l0.7-0.3 0.7-0.3 0.7-0.3 0.3-0.1m-11.7-46l0.8 1.3m0.2 0.2l-0.8-1.2m0 0l0.7 1.1m-0.7-1l0.9 1.3m-0.5-0.9l-0.4-0.5m0.3 0.4l-0.3-0.3m0-0.1l0.1 0.2m-13-14.5l0.5 0.4m-71.4-0.2v0.2 0.8l-0.1 0.3m-21.3 24.2l-0.1 1.1-0.2 1.1-0.2 1.2-0.2 1.1-0.2 1.5-0.1 0.5m-2.8 15l-0.1 0.5-0.1 0.9-0.1 0.8v0.8 0.7 0.6l0.1 0.6 0.2 0.6 0.2 0.5 0.3 0.5 0.3 0.5 0.4 0.5 0.6 0.6 0.5 0.5 0.6 0.6 0.7 0.6h0.1"/>
	<path class="s0" d="m91.6 139l0.3 0.3 0.7 0.6 0.3 0.4m5.3 2.8l-0.7-0.3-0.7-0.3-0.7-0.3-0.3-0.1m22.8-58.8l0.5-0.4m-11.8 13.5l-0.8 1.2m0.1-0.1l0.8-1.3m-0.7 1.2l0.8-1.3m-0.2 0.3l-0.9 1.4m0.5-0.9l0.4-0.5m-0.3 0.4l0.3-0.4m-0.2 0.2l0.2-0.1v-0.1m110.2 30.6l0.2-0.1 0.7 0.2 0.6 0.5 0.4 0.5 0.3 0.7 0.2 0.7 0.2 0.7 0.1 0.9v0.8 0.7l-0.2 0.7-0.2 0.7-0.3 0.5-0.6 0.5-0.6 0.2-0.8 0.1-0.7-0.2-0.6-0.5-0.4-0.5-0.3-0.7-0.2-0.7-0.2-0.7-0.1-0.8v-0.9l0.1-0.7 0.1-0.7 0.2-0.7 0.3-0.5 0.6-0.5 0.4-0.2zm-1.3 0.3l-2.9-1.2m1.1 10.9l2.5-1.8"/>
	<path class="s0" d="m216.1 135.8l-0.2 0.3-0.5 0.8-0.5 0.7-0.6 0.3-0.7 0.2h-0.8l-0.7-0.1-0.7-0.3-0.6-0.6-0.6-0.8-0.5-1-0.2-0.6-0.2-0.6-0.2-0.6-0.1-0.6-0.1-0.6-0.1-0.7v-0.6-0.6-0.7l0.1-0.6 0.1-0.6 0.2-0.5 0.3-1 0.5-0.8 0.6-0.6 0.6-0.4 1.1-0.2h0.7l0.7 0.3 0.7 0.5 0.6 0.7 0.2 0.3m-4.1 10.6l-3.6 0.4m-1.1-11.3l3.6-0.4m-7.3 16.7l-1.2-1.4-0.6-3m-1.5-13.3l0.1-0.3 7.6-2.9m-78.5-106.9l-0.5 0.6m0.4-0.5l0.1-0.1m-0.5 0.6l0.1-0.2m49.4 129v-0.1-0.6l-0.2-1.7-0.1-1.1-0.2-1.2-0.3-1.2-0.3-1.2-0.4-1.1-0.4-1.1-0.5-1.1-0.6-1.1-0.6-1-0.7-1.1-0.7-1-0.7-0.9-0.9-0.9-0.8-0.9-0.9-0.8-1-0.8-0.9-0.8-1.1-0.6-1-0.7-1.1-0.6-1.1-0.5-1.1-0.5-1.2-0.5-1.2-0.3-1.2-0.4-1.2-0.2-1.2-0.2-1.3-0.2-1.2-0.1h-1.3-1.2l-1.3 0.1-1.2 0.2-1.2 0.2-1.3 0.2-1.2 0.4-1.1 0.3-1.2 0.5-1.1 0.5-1.2 0.5-1 0.6-1.1 0.7-1 0.6-1 0.8-0.9 0.8-0.9 0.8-0.9 0.9-0.8 0.9-0.8 0.9-0.7 1-0.6 1.1-0.7 1-0.5 1.1-0.5 1.1-0.5 1.1-0.3 1.1-0.4 1.2-0.2 1.2-0.3 1.2-0.1 1.1-0.1 1.2v0.7 0.5"/>
	<path class="s0" d="m173.1 122.1l0.1 0.2 0.8 1 0.8 1 0.7 1.1 0.7 1.1 0.6 1.2 0.5 1.2 0.5 1.2 0.4 1.2 0.2 0.6 0.3 1.2 0.3 1.3 0.2 1.3 0.1 0.6 0.2 1.3 0.1 1.9 0.1 0.6v1.5 1.3l-0.1 1.3-0.2 1.3-0.2 1.3-0.3 1.3-0.4 1.2-0.4 1.3-0.5 1.2-0.6 1.2m-0.5 1l-0.1 0.1-0.1 0.2m-48.1 0.1l-0.2-0.3-0.1-0.2m5.5-6.5l0.2-0.9 0.1-0.7 0.2-0.9 0.2-0.8 0.3-0.9 0.3-0.7 0.4-0.8 0.4-0.8 0.4-0.8 0.5-0.7 0.6-0.8 0.5-0.7 0.7-0.7 0.6-0.6 0.7-0.6 0.7-0.6 0.7-0.6 0.7-0.5 0.8-0.5 0.8-0.4 0.9-0.4 0.8-0.4 0.9-0.3 0.9-0.3 0.9-0.2 0.9-0.2 0.9-0.2 1-0.1 0.9-0.1h0.9 1l0.9 0.1 0.9 0.1 1 0.2 0.9 0.2 0.9 0.2 0.9 0.3 0.8 0.3 0.9 0.4 0.8 0.4 0.8 0.4 0.8 0.5 0.8 0.5 0.7 0.6 0.7 0.6 0.7 0.6 0.6 0.6 0.6 0.7 0.6 0.7 0.5 0.8 0.5 0.7 0.5 0.8 0.4 0.8 0.4 0.8 0.2 0.7 0.3 0.9 0.3 0.8 0.2 0.9 0.1 0.7 0.1 0.9m-15.3 10.7l-1.5-0.2-2.1-0.2-0.8 0.4-0.8 0.4-0.7 0.3-0.8 0.4-0.8 0.2-0.9 0.3-0.8 0.2h-0.9l-0.9 0.1-1-0.1"/>
	<path class="s0" d="m142.1 146.7l0.9-1.2 1.3-1.6 0.1-0.9v-0.8l0.1-0.8 0.2-0.8 0.1-0.8 0.3-0.8 0.3-0.7 0.4-0.8 0.5-0.8 0.5-0.6"/>
	<path class="s0" d="m142.4 151.8l0.2-1.5 0.3-2-0.4-0.8-0.4-0.7-0.3-0.8-0.3-0.7-0.3-0.8-0.2-0.8-0.1-0.8-0.1-0.9v-0.9l0.1-0.7m16.8 21.2l0.1-0.2 0.6-0.8 0.5-0.7 0.4-0.8 0.3-0.8 0.2-0.8 0.2-0.8 0.1-0.8v-0.8l0.1-0.9v-0.8l1.3-1.7 0.9-1.2m3-7.1l-0.7-0.5-0.8-0.5-0.9-0.3-0.8-0.3-0.8-0.3-0.8-0.1-0.9-0.2h-0.8l-0.9-0.1h-0.8l-1.7-1.3-1.3-0.9"/>
	<path class="s0" d="m163.7 157.1l0.1-0.9v-0.9l-0.1-0.9-0.2-0.8-0.2-0.8-0.3-0.8-0.3-0.8-0.4-0.7-0.3-0.8-0.4-0.7 0.2-2.1 0.2-1.4m-11.7 13.1l-1.5-1.1-1.7-1.3h-0.8l-0.9-0.1h-0.8l-0.9-0.2-0.8-0.1-0.8-0.3-0.8-0.3-0.8-0.3-0.8-0.5-0.8-0.6"/>
	<path class="s0" d="m152.2 135l0.7 0.1h0.7l0.7 0.1 0.7 0.1 0.7 0.2 0.7 0.1 0.7 0.3 0.6 0.2 0.7 0.3 0.6 0.3 0.6 0.3 0.6 0.4 0.6 0.4 0.5 0.4 0.5 0.4 0.6 0.5 0.4 0.5 0.5 0.5 0.4 0.5 0.4 0.6 0.4 0.6 0.3 0.6 0.4 0.6 0.2 0.6 0.3 0.6 0.2 0.7 0.2 0.6 0.2 0.7 0.1 0.6 0.1 0.7v0.7 0.7 0.6l-0.1 0.7v0.7l-0.2 0.6-0.1 0.7-0.2 0.7-0.2 0.6-0.3 0.6-0.3 0.6-0.3 0.6-0.3 0.6-0.4 0.6-0.4 0.6-0.4 0.5-0.5 0.5-0.5 0.5-0.5 0.5-0.5 0.4-0.6 0.4-0.5 0.4-0.6 0.4-0.6 0.3-0.7 0.3-0.6 0.3-0.7 0.2-0.6 0.2-0.7 0.2-0.7 0.1-0.7 0.2h-0.7l-0.7 0.1h-0.7-0.7l-0.7-0.1h-0.7l-0.7-0.2-0.6-0.1-0.7-0.2-0.7-0.2-0.6-0.2-0.7-0.3-0.6-0.3-0.6-0.3-0.6-0.4-0.6-0.4-0.5-0.4-0.6-0.4-0.5-0.5-0.4-0.5-0.5-0.5-0.4-0.5-0.4-0.6-0.4-0.6-0.4-0.6-0.3-0.6-0.3-0.6-0.2-0.6-0.2-0.6-0.2-0.7-0.2-0.7-0.1-0.6-0.1-0.7v-0.7l-0.1-0.6 0.1-0.7v-0.7l0.1-0.7 0.1-0.6 0.2-0.7 0.1-0.6 0.3-0.7 0.2-0.6 0.3-0.6 0.3-0.6 0.4-0.6 0.3-0.6 0.4-0.6 0.5-0.5 0.4-0.5 0.5-0.5 0.5-0.5 0.5-0.4 0.6-0.4 0.6-0.4 0.6-0.4 0.6-0.3 0.6-0.3 0.7-0.3 0.6-0.2 0.7-0.3 0.7-0.1 0.6-0.2 0.7-0.1 0.7-0.1h0.7c0 0 0.7-0.1 0.7-0.1z"/>
	<path class="s0" d="m170.8 145.7l0.1 0.8 0.1 0.9 0.1 0.9v0.9 0.9l-0.1 0.8-0.1 0.9-0.2 0.9-0.2 0.9-0.2 0.8-0.3 0.9-0.4 0.8-0.3 0.8-0.5 0.8-0.4 0.8-0.5 0.8-0.5 0.7-0.6 0.7-0.6 0.7-0.7 0.6-0.6 0.6-0.7 0.6-0.8 0.5-0.7 0.5-0.8 0.5-0.8 0.5-0.8 0.4-0.9 0.3-0.8 0.3-0.9 0.3-0.9 0.3-0.9 0.2-0.9 0.1-0.9 0.1-1 0.1h-0.9-0.9l-0.9-0.1-0.9-0.1-0.9-0.1-0.9-0.2-0.9-0.3-0.9-0.3-0.9-0.3-0.8-0.3-0.8-0.4-0.8-0.5-0.8-0.5-0.8-0.5-0.7-0.5-0.7-0.6-0.7-0.6-0.6-0.6-0.6-0.7-0.6-0.7-0.5-0.7-0.5-0.8-0.5-0.8-0.4-0.8-0.4-0.8-0.3-0.8-0.3-0.9-0.3-0.8-0.2-0.9-0.1-0.9-0.1-0.9-0.1-0.8v-0.9-0.9l0.1-0.9 0.1-0.9 0.1-0.8m20.4-10.5l-0.7 0.2-0.9 0.5-0.7 0.5-0.7 0.5-0.6 0.6-0.6 0.6-0.5 0.6-0.5 0.7-0.5 0.6-0.5 0.7-2 0.8-1.4 0.6"/>
	<path class="s0" d="m160.8 137.8l-0.8-0.1h-0.9l-0.9 0.1-0.8 0.1-0.9 0.2-0.8 0.3-0.8 0.3-0.8 0.3-0.7 0.3-0.8 0.4-2.1-0.3-1.5-0.2m-10.9 7.6l0.3 0.7 0.5 0.8 0.5 0.8 0.5 0.6 0.6 0.6 0.6 0.6 0.7 0.5 0.7 0.5 0.7 0.4 0.7 0.5 0.8 1.9 0.7 1.4m14.7-1l-1.4 0.6-2 0.9-0.4 0.7-0.5 0.7-0.5 0.7-0.5 0.6-0.6 0.7-0.6 0.6-0.7 0.5-0.7 0.5-0.8 0.5-0.9 0.3-0.1 0.1m-38.4-45.9l-0.2 0.3-0.1 0.7 0.3 0.6h0.6l0.4-0.6 0.1-0.7-0.3-0.6h-0.6zm1.5-2.1l-0.1-0.3-0.5-0.1-0.4 0.4-0.2 0.7 0.2 0.6h0.5l0.4-0.4 0.2-0.7zm-0.3-2.8v0.1l0.6 0.2 0.3-0.2 0.3-0.7v-0.6l-0.5-0.4-0.2 0.1-0.4 0.5-0.2 0.7c0 0 0.1 0.3 0.1 0.3zm-7.8 6.1v-0.1l-0.2-0.5 0.2-0.8 0.2-0.6 0.2-0.8 0.4-0.9 0.3-0.9 0.2-0.6 0.3-0.9 0.2-0.8 0.4-0.9 0.3-0.9 0.2-0.6 0.2-0.8 0.3-0.8 0.3-1 0.3-0.8 0.2-0.6 0.2-0.5 0.4-0.4h0.1m3.8 17.9v-0.1l-0.4-0.1m-5.6-7.7h-0.1l-0.2-0.1-0.2 0.6-0.2 0.6-0.2 0.6-0.2 0.5 0.4 0.2 0.8 0.4 0.5 0.2 0.1 0.1m72-9.7l-0.1 1.3m0.1-2.1v-1.3m27.8 37.7v-0.1l0.6-0.3m0 0l-0.6 0.4"/>
	<path class="s0" d="m208.4 142.4l2.1 0.3 0.6-0.3 0.6-0.6 0.7-0.6 0.7-0.6 0.6-0.6 0.5-0.6 0.6-0.6 0.3-0.6 0.3-0.6 0.1-0.6v-0.1m-112 8.1l-0.8-0.3-0.8-0.2-0.8-0.3-0.8-0.3-0.7-0.3-0.7-0.3-0.7-0.2-0.7-0.3-0.7-0.3-0.7-0.3v1.7l0.3 0.5 0.6 0.3 0.7 0.3 0.7 0.3 0.7 0.2 0.8 0.3 0.7 0.3 0.8 0.3 0.7 0.3 0.8 0.2 0.9 0.3 0.8 0.3 0.9 0.2 0.9 0.3 0.9 0.2 1 0.3 1 0.2 1.1 0.3 1.1 0.2 1.1 0.2 1.2 0.2 1.1 0.2 1.3 0.2 1.2 0.2 1.3 0.2 1.4 0.1 1.3 0.2 1.3 0.2 1.3 0.1 1.4 0.1 1.2 0.2m51.2 0l1.2-0.2 1.4-0.1 1.3-0.1 1.3-0.2 1.3-0.2 1.3-0.1 1.4-0.2 1.2-0.2 1.3-0.2 1.2-0.2 1.1-0.2 1.1-0.2 1.1-0.2 1.1-0.3 1-0.2 1-0.3 0.9-0.2 0.9-0.3 0.9-0.2 0.8-0.3 0.9-0.3 0.8-0.2 0.7-0.3 0.8-0.3 0.7-0.3 0.8-0.2 0.7-0.3 0.7-0.3 0.7-0.3 0.6-0.3 0.3-0.5v-1.7l-0.7 0.3-0.7 0.3-0.7 0.3-0.7 0.2-0.7 0.3-0.7 0.3-0.8 0.3-0.8 0.3-0.8 0.2-0.8 0.3m-105-2.6l-2.1 0.3-0.5-0.3-0.7-0.6-0.6-0.6-0.7-0.6-0.7-0.6-0.5-0.6-0.5-0.6-0.4-0.6-0.2-0.6-0.1-0.6v-0.8m6.5 5.8l0.5 0.4m0 0l-0.5-0.4"/>
	<path class="s0" d="m105.3 145.5l0.9 0.3 0.9 0.2 1 0.3m1 0.2l1.1 0.3 1.1 0.2m1.1 0.2l1.2 0.2 1.2 0.2m2.5 0.4l1.2 0.2 1.3 0.1 1.4 0.2 1.3 0.1 1.3 0.2 1.1 0.1m0.3 0l0.6 0.1m54.8-0.2l1.3-0.2 1.4-0.1 1.3-0.2 1.3-0.1m3.7-0.6l1.2-0.2 1.2-0.2m1.1-0.2l1.1-0.2 1.1-0.3 1-0.2 1-0.3 0.9-0.2 0.9-0.3m-75.3-38.6v1.3m0-2.1v-1.3m93.6-30.9l-10.3 17.9-3.1 9.9m0.6-17.2l12.8-10.6m-10.3 17.9l-2.9 0.9m-103.8 9l-3.1-9.9m0 0l2.8 0.9m-0.3-8.2l-12.8-10.6m0 0l13.1 26.8m0.4 2.9l-0.1 0.2m-6.2 38.9l-0.5 3.3m6.8 35.7v3.6m-2.1-13.8l13 11.8 28.1-5.7h25.4l28.1 5.7 13-11.8 0.1-0.1"/>
	<path class="s0" d="m206.1 171.4l-2.7 12.9-9.7 4.1-2.2 22.7m10.3 6.2l-0.1 0.3-0.3 20.7-26.1 17.6h-46.2l-26.2-17.6-0.3-20.7-0.8-11.2m9.9 44.9l5.7 16.8 5.7 16.9"/>
	<path class="s0" d="m123.1 285l4.7-14.5 4.1-8.7h40.5l2.9-5.9-1.9-40.1h-42.6l-1.7 40.1 2.8 5.9"/>
	<path class="s0" d="m131.9 261.8l-20.2-10.5-8.8-13 0.6-31.1m97.5 9.5l0.4 21.6-8.7 13-5.7 16.8-5.8 16.9"/>
	<path class="s0" d="m181.2 285l-4.6-14.5-4.2-8.7 20.3-10.5m20-24.9l-11.3-21-7.7-17-28-3.8-0.8-7 0.1-8m45.7-23.6l-0.6-3.3m-5.8-42.1l13.1-26.7m-13 114.7l1.7-17.2 0.2-1"/>
	<path class="s0" d="m206.4 145.1l2.3 13.6-2.7 12.8-2.6 12.8 4.5 19.1 4.8 23m0 0l-13.5-11.1-7.7-4.2-18.1 4.7-7.7-31.2-27.1-0.2-7.8 31.4-17.9-4.7m-11.9-26.8l-3 6.6-18.2-2.1"/>
	<path class="s0" d="m79.8 188.8l21.1 8.7 9.8-9.1-9.7-4.1-2.6-12.8-2.7-12.8 2.3-13.6"/>
	<path class="s0" d="m139.4 169.6l0.1 8-0.9 6.8-27.9 4 2.2 22.7-20.4-8.5-12.7-13.8m7.2-114.9l10.3 17.9m108.1 35.2l0.2-0.1 0.2-0.1m1.7 11l-0.3-0.1h-0.1m-0.4-0.1l-0.1-0.1h-0.1m-0.4-0.3l-0.1-0.1-0.2-0.2"/>
	<path class="s0" d="m208.6 126.3h-0.1l-0.6-0.4-0.7-0.1-0.6 0.1-0.6 0.4-0.6 0.5-0.4 0.8-0.4 1-0.2 1.1-0.1 0.6v0.6l-0.1 0.6 0.1 0.6v0.6l0.1 0.6 0.2 0.6 0.1 0.6 0.2 0.6 0.2 0.5 0.5 0.9 0.6 0.8 0.6 0.6 0.6 0.3 0.7 0.2 0.7-0.2 0.6-0.3 0.3-0.3m-7 5.2l1.3-0.1 7.5-3 1.1-1.6"/>
	<path class="s0" d="m212.2 138l-7 2.8-2.6-14.5 7.6-2.9-1.8-1.6-1.3 0.1"/>
	<path class="s0" d="m208.4 121.8l-7.7 2.9-0.6 2.1h-0.4m0.4 0l2.6 14.5-1.2 0.1m9.1-15.8l-0.4-2.2"/>
	<path class="s0" d="m202.6 126.3l-1.9-1.6-1.2 0.1m5.7 16l-1.2 1.9-1.3-1.4m-76.5-32.8l-0.1 1-0.1 0.7m-0.3 0l-0.2 1-0.2 1.1-0.3 1-0.2 1.1"/>
	<path class="s0" d="m124.8 114.4l-0.4-2-0.3-1.9-0.2-1.9-0.1-1.7v-2.1l-0.1-1.9v-1.8-1.7l0.1-1.7v-1.6l0.9-0.2 0.8-0.2 0.9-0.2 0.3-1.8 0.2-1.7 0.3-1.8 0.2-1.8 0.3-1.8 0.2-1.7 0.3-1.8 0.2-1.8 0.3-1.7 1.1-0.5 1.1-0.4h1.3 0.6"/>
	<path class="s0" d="m126.2 107.5l-0.1 0.7-0.4 2 1.7-0.1h1.6l1.7-0.1 1.7-0.1h0.7m18.1-0.4h1 1m18.1 0.4h0.8l1.6 0.1 1.7 0.1h1.6l1.7 0.1-0.3-2-0.1-0.7"/>
	<path class="s0" d="m171.6 78.7h0.6 1.3l1.1 0.4 1.1 0.5 0.3 1.7 0.2 1.8 0.3 1.8 0.2 1.7 0.3 1.8 0.2 1.8 0.3 1.8 0.3 1.7 0.2 1.8 0.9 0.2 0.9 0.2 0.8 0.2v1.6l0.1 1.7v1.7 1.5 2.2l-0.1 1.9-0.1 1.9-0.1 1.4-0.4 2.4-0.4 2"/>
	<path class="s0" d="m205.5 122.3l-0.1-0.4-0.4-1.3-0.5-1.3-0.5-1.5-0.5-1.4-0.6-1.6-0.6-1.5-0.6-1.7-0.7-1.6-0.7-1.7-0.8-1.7-0.8-1.7-0.8-1.7-0.8-1.6-0.9-1.7-0.9-1.6-0.9-1.5-1-1.5-0.9-1.5-1-1.3-1-1.3-1-1.2-1-1-1-1-1-0.9-1.1-0.9-1-0.8-1.1-0.7-1.1-0.6-1.1-0.7-1-0.5-1.1-0.6-1.1-0.5-1.1-0.4-0.9-0.4m2.6 29.2l-0.2-0.7-0.1-0.9m30.4 33.5l0.2-0.1 0.4-0.4 0.2-0.6 0.1-0.5m-29.9-26.1l-0.2-1.1-0.2-1-0.3-1.1-0.2-1m1.9-4.1v1.9l-0.1 1.9-0.1 1.4-0.4 2.4-0.4 2 0.2 1 0.1 1 0.1 1.1 0.1 0.9v1 1l-0.1 0.9m13.2-31.7l-0.1-0.3-0.5-0.9-0.4-0.8-0.4-0.8-0.2-0.8-0.2-0.7-0.2-0.6-0.1-0.7-0.1-0.6v-0.6-0.6-1.1l0.1-1-1-0.9-0.7-0.6"/>
	<path class="s0" d="m189.4 79.9l1.4 1.1 0.7 0.7 0.7 0.7 0.8 0.7 0.4 0.5 0.5 0.5 0.5 0.5 0.4 0.4m11.5 12.6l0.4 0.5 0.9 1.1 0.8 1.1 0.8 1 0.7 1 0.6 1 0.5 0.9 0.5 0.8 0.3 0.8 0.3 0.7 0.2 0.7 0.1 0.6v0.8l-0.4 0.6h-0.7l-1.1-0.3-0.7-0.4-0.7-0.5-0.9-0.7-0.9-0.7-0.9-0.8-1.1-1-1-0.9-1.1-1.1-1-1.1-1.1-1.2-1.1-1.1-1-1.2-1-1.2-1-1.1m-43.5-29.6h-1-0.9m-41.8 18.7l0.4-0.4 0.5-0.5 0.5-0.5 0.5-0.5 0.4-0.4 0.7-0.7 0.7-0.6 0.8-0.7 0.8-0.7"/>
	<path class="s0" d="m114.8 80l-1.6 1.4 0.1 0.5v1.1l0.1 1.1-0.1 0.6v0.6l-0.1 0.7-0.2 0.6-0.2 0.7-0.3 0.8-0.3 0.8-0.4 0.8-0.5 0.9-0.2 0.4m-3.4 4.8v0.1l-1 1.1-1 1.2-1 1.2-1.1 1.1-1.1 1.2-1.1 1.1-1 1.1-1.1 0.9-1 1-0.9 0.8-1 0.7-0.8 0.7-0.8 0.5-0.6 0.4-0.6 0.2-0.9 0.2-0.6-0.3-0.2-0.8 0.2-1 0.1-0.7 0.3-0.7 0.4-0.8 0.4-0.8 0.6-0.9 0.6-1 0.7-1 0.7-1 0.9-1.1 0.8-1.1 0.4-0.5m113.2 42.8h0.2l0.4-0.6 0.2-0.7v-0.1m-3.5-18.2v-0.2l-0.5-1.2-0.4-1.4-0.5-1.4-0.5-1.4-0.6-1.5-0.7-1.5-0.7-1.6-0.7-1.6-0.8-1.7-0.8-1.7-0.9-1.7-0.9-1.6-0.9-1.7-1-1.7-1-1.6-1-1.6-1-1.5-1.1-1.5-1-1.5-1.1-1.4-1.1-1.2-1.1-1.2-1.1-1.2-1.1-1-1.1-1-1.1-0.9-1.1-0.8-1.2-0.8-1.1-0.7-1.1-0.7-1.2-0.7-1.1-0.6-1.1-0.6-1.2-0.6-0.3-0.1m-23.3-1.5h-1.7"/>
	<path class="s0" d="m128 77.7l-0.3 0.1-1.2 0.6-1.1 0.6-1.2 0.6-1.1 0.7-1.1 0.7-1.2 0.7-1.1 0.8-1.1 0.8-1.1 0.9-1.1 1-1.1 1-1.1 1.2-1.1 1.2-1.1 1.2-1.1 1.4-1.1 1.5-1 1.5-1 1.5-1.1 1.6-0.9 1.6-1 1.7-0.9 1.7-0.9 1.6-0.9 1.7-0.8 1.7-0.8 1.7-0.7 1.6-0.7 1.6-0.7 1.5-0.6 1.5-0.5 1.4-0.5 1.4-0.5 1.4-0.4 1.2-0.1 0.4m-2.8 12.8l-0.1 0.6-0.1 0.6-0.1 0.5-0.2 1-0.1 0.9v0.8 0.6l0.1 0.8 0.3 0.5 0.3 0.3m58.3-60.3h1.7m15.3 35.3h0.9l1.7 0.1h1.8 1.7l1.7 0.1h1.7l1.7 0.1v-1.3m-83.8 27.7l-0.2-0.1-0.4-0.4-0.2-0.6-0.1-0.9v-0.6l0.1-0.8 0.2-0.9 0.2-1 0.1-0.6 0.1-0.6 0.1-0.4"/>
	<path class="s0" d="m98.8 122.5l0.2-0.6 0.4-1.3 0.5-1.3 0.5-1.5 0.5-1.4 0.6-1.6 0.6-1.5 0.6-1.7 0.7-1.6 0.7-1.7 0.8-1.7 0.8-1.7 0.8-1.7 0.8-1.6 0.9-1.7 0.9-1.6 0.9-1.5 1-1.5 0.9-1.5 1-1.3 1-1.3 1-1.2 1-1 1-1 1-0.9 1.1-0.9 1-0.8 1.1-0.7 1.1-0.6 1.1-0.7 1-0.5 1.1-0.6 1.1-0.5 1.1-0.4 0.9-0.4m-4.7 25.1v1.9l0.1 1.9 0.2 1.4 0.3 2.4 0.4 2-0.1 1-0.2 1-0.1 1-0.1 1v1 1l0.1 0.9"/>
	<path class="s0" d="m136 115.4h-0.9l-1.7 0.1h-1.7-1.7l-1.7 0.1h-1.8l-1.7 0.1v-1.3m81 12.4l0.1-0.1 0.5-0.2m-1.5 1.2l0.2-0.3 0.3-0.4m1.7 10.7h-0.2l-0.2-0.1m-0.2-0.1l-0.2-0.1-0.2-0.2m-4.4 1v-0.1l0.2-0.5-0.1-0.6-0.2-0.7-0.1-0.8-0.2-0.7-0.1-0.7-0.2-0.7-0.1-0.8-0.2-0.7-0.2-0.8-0.1-0.7-0.2-0.7-0.1-0.8-0.2-0.7-0.1-0.8-0.1-0.6 0.1-0.6 0.1-0.5-0.2-0.5-0.3-0.1m-15.2-43l-0.6-0.3-0.7-0.5-0.5-0.4-0.6-0.3-0.5-0.4-0.6-0.3-0.5-0.3-0.7-0.4-0.5-0.3-0.5-0.2-0.6-0.3-0.7-0.4-0.8-0.4m-57.3 5.3l0.3-0.2 0.8-0.6 0.5-0.3 0.8-0.5 0.5-0.4 0.6-0.3 0.5-0.4 0.6-0.3 0.5-0.3 0.7-0.4 0.5-0.3 0.5-0.2 0.6-0.3 0.7-0.4 0.8-0.4m48.7 68.5l-0.1-0.7v-0.7l-0.1-0.7-0.1-0.6-0.1-0.7-0.2-0.7-0.1-0.6-0.2-0.6-0.2-0.7-0.2-0.6-0.2-0.6-0.3-0.7-0.3-0.6-0.3-0.6-0.2-0.5-0.4-0.6-0.3-0.6-0.3-0.5-0.5-0.7-0.4-0.5-0.3-0.5-0.4-0.5-0.5-0.6-0.4-0.5-0.5-0.4-0.5-0.6-0.5-0.4-0.5-0.5-0.5-0.4-0.5-0.4-0.6-0.4-0.5-0.4-0.6-0.4-0.6-0.4-0.6-0.3-0.5-0.3-0.7-0.4-0.6-0.3-0.5-0.2-0.8-0.3-0.6-0.3-0.6-0.2-0.6-0.2-0.8-0.2-0.6-0.2-0.6-0.1-0.8-0.2-0.7-0.1-0.6-0.1-0.6-0.1h-0.6l-0.7-0.1h-0.6-0.6-0.7-0.7-0.6l-0.7 0.1-0.8 0.1h-0.6l-0.7 0.2-0.7 0.1-0.6 0.1-0.6 0.2-0.7 0.2-0.8 0.2-0.6 0.2-0.6 0.2-0.7 0.3-0.6 0.3-0.6 0.2-0.6 0.3-0.7 0.4-0.5 0.3-0.6 0.4-0.6 0.4-0.5 0.3-0.5 0.4-0.6 0.4-0.6 0.5-0.4 0.4-0.5 0.5-0.6 0.5-0.4 0.4-0.4 0.5-0.5 0.5-0.5 0.6-0.4 0.5-0.3 0.5-0.5 0.6-0.3 0.6-0.3 0.5-0.4 0.6-0.3 0.6-0.3 0.6-0.3 0.6-0.3 0.6-0.2 0.6-0.2 0.6-0.2 0.6-0.2 0.8-0.2 0.6-0.1 0.6-0.2 0.7-0.1 0.6-0.1 0.6-0.1 0.7v0.8 0.4m48.3-12.5l-0.3-0.5-0.4-0.4-0.2-0.1m1 2.3v0.1l0.4 0.4 0.2 0.5m-49.2 1.5l-0.4 0.6v0.1m46.9-8.6l-0.1-0.1-0.3-0.6-0.6-0.3-0.3-0.5-0.1-0.6-0.4-0.5-0.5-0.3-0.5-0.4-0.1-0.6-0.3-0.5-0.6-0.2-0.6-0.3-0.2-0.6-0.3-0.5-0.5-0.2-0.6-0.2-0.4-0.6-0.3-0.5-0.7-0.2-0.6-0.1-0.4-0.5-0.4-0.5-0.6-0.2h-0.6l-0.5-0.4-0.3-0.5-0.6-0.2-0.6 0.1-0.6-0.3-0.2-0.2m-18.1 0h-0.1l-0.4 0.4h-0.6l-0.7 0.1-0.5 0.4-0.4 0.5-0.6 0.1-0.7 0.1-0.4 0.4-0.3 0.5-0.6 0.3-0.6 0.1-0.4 0.4-0.3 0.6-0.5 0.3-0.7 0.2-0.4 0.4-0.2 0.6-0.4 0.4-0.7 0.2-0.4 0.5-0.2 0.5-0.3 0.5-0.6 0.3-0.4 0.4-0.1 0.6-0.2 0.6-0.5 0.3-0.5 0.4-0.1 0.4m46.8 8.6v-0.2l-0.3-0.5m0.5 3l-0.1-0.4m-49-5.1l-0.5 0.5-0.1 0.5m1.5-3.3l-0.5 0.4-0.3 0.4-0.1 0.2m25.2-16.4l-0.7 0.2-0.6 0.2-0.6-0.2-0.5-0.2h-0.1m23.1 13.1l0.5 0.4 0.4 0.4 0.2 0.5m-46 0l0.1-0.1 0.2-0.5 0.5-0.4 0.3-0.3m20.7-17.6h1 1.4m19.7 9.4l-0.2-0.2-0.6-0.7-0.5-0.5-0.4-0.4-0.7-0.7-1-0.8-0.5-0.4-0.8-0.6-0.6-0.4-0.2-0.2m-30.7 0l-0.3 0.2-0.5 0.4-0.9 0.6-0.5 0.4-0.6 0.5-0.7 0.6-0.5 0.5-0.5 0.5-0.7 0.8-0.4 0.4m-4.2 17.9l-0.1 0.4m26.3-30.3l-0.1-0.6m0.2-2.7l0.1-0.6v-0.6l-0.1-0.4m18.4 3.5l-0.3-0.5v-0.6-0.7-0.6l0.4-0.3m-39.3 0.3v0.1 0.7l0.1 0.6v0.7l-0.1 0.3m18.6 0.8l-0.1 0.6m-18.5-4v0.1m18.9-27.5h-0.1v-0.6-0.6-0.6-0.7-0.5-1.2-0.7-0.6-0.7-0.6-0.6-0.6-0.7-0.6l-0.1-0.6v-0.6-0.6-0.3m-0.1 25v-0.2l0.1-0.6v-1-0.9-1-0.8-0.6l0.1-0.7v-0.7-1-0.7-1.2-0.6-0.6-0.7-0.9m0.1 29.4v-0.4-0.6-0.7-0.7l-0.1-1v-0.8l-0.1-0.5m1.6 4.7v-0.1-0.7-0.7l0.1-0.6v-0.9-0.6l0.1-0.5v-0.5m0.2-10.5v-0.2l-0.1-0.8v-0.9-0.8l-0.1-0.8v-0.6-0.7-1-0.8-0.6-0.6-0.6-0.6l-0.1-0.6v-0.8-1.1-0.6-0.7-0.6l0.1-0.5v-0.4m-0.2-1.4l0.1-0.6v-0.6-0.6l0.1-0.7v-0.5-0.6-0.6l-0.1-0.7v-0.6-1.9-0.6-0.7-0.6l0.1-0.7v-0.5-0.6-0.5m-62.2 47.2v0.6 0.6 0.6l0.2 0.6 0.2 0.6 0.3 0.5 0.3 0.4m30.5 23.4l0.1-0.8v-0.6-0.8-0.6-0.6-0.7-0.6l0.1-0.6 0.1-0.7 0.1-0.8 0.1-0.6 0.1-0.6 0.2-0.6 0.1-0.7 0.2-0.6 0.2-0.6 0.1-0.6 0.2-0.6v-0.6l-0.1-0.6-0.6-0.1-0.7-0.1h-0.6l-0.6-0.1-0.6-0.1-0.6-0.1-0.6-0.1-0.7-0.1-0.5-0.1-0.6-0.1-0.6-0.1-0.5-0.1-0.7-0.1-0.5-0.2-0.6-0.1-0.6-0.1-0.6-0.1-0.6-0.1-0.6-0.2-0.7-0.1-0.7-0.2-0.9-0.2-0.8-0.2-0.8-0.3-0.6-0.1-0.6-0.2-0.6-0.2-0.6-0.2-0.7-0.2-0.5-0.2-0.6-0.2-0.5-0.2-0.9-0.4-0.6-0.2-0.7-0.2-0.6-0.3-0.7-0.2-0.6-0.2-0.6-0.1v0.1m0-1.3h-0.1l-0.6-0.1-0.6-0.1-0.5-0.1-0.6-0.1h-0.6l-0.1 0.2"/>
	<path class="s0" d="m205.5 122.3l-0.3 0.1-0.7 0.2-0.8 0.4-0.7 0.2-0.7 0.3-0.7 0.3-0.7 0.2-0.7 0.3-0.7 0.2-0.7 0.3-0.6 0.2-0.7 0.2-0.5 0.2-0.7 0.2-0.6 0.2-0.5 0.1-0.7 0.2-0.7 0.2-0.7 0.2-0.8 0.2-0.8 0.2-0.6 0.1-0.6 0.1-0.8 0.2-0.6 0.1h-0.5l-0.7 0.2h-0.6l-0.6 0.1-0.6 0.1h-0.6l-0.8 0.1h-0.6-0.8-0.6-0.5-0.6-0.6l-0.6-0.1-0.3 0.5-0.1 0.6 0.1 0.7 0.2 0.5 0.1 0.7 0.1 0.6 0.2 0.6 0.1 0.6 0.1 0.7 0.1 0.7 0.1 0.6 0.1 0.7 0.1 0.6 0.1 0.7v0.6 0.6 0.7 0.6 0.8 0.8 0.8 0.5m32.2-27.8l0.1 0.2v0.6l-0.1 0.6-0.2 0.6-0.2 0.6-0.3 0.5-0.4 0.6-0.4 0.4-0.5 0.5-0.5 0.4-0.5 0.4-0.5 0.3-0.5 0.4-0.6 0.3-0.6 0.3-0.8 0.1-0.7 0.1-0.5 0.2-0.6 0.1h-0.4m-107-19.6l0.1 0.1 0.5 0.3 0.6 0.3 0.6 0.5 0.4 0.4m105.8-1.6l-0.1 0.1-0.6 0.3-0.5 0.3-0.7 0.5-0.4 0.4m-93.7 0l0.5 0.4 0.4 0.4 0.5 0.5 0.4 0.4 0.5 0.4 0.4 0.5 0.5 0.4 0.4 0.4 0.5 0.4 0.6 0.6 0.4 0.4 0.4 0.4 0.5 0.4 0.4 0.5 0.1 0.6-0.2 0.7-0.1 0.6-0.1 0.7-0.2 0.6-0.1 0.8-0.2 0.6-0.1 0.6-0.1 0.6-0.1 0.6-0.1 0.5-0.1 0.7-0.1 0.7-0.2 0.7v0.6l-0.1 0.6-0.1 0.6-0.1 0.6-0.4 0.5-0.3-0.1m-2.9-4.6l-0.1 0.3m0.7-2.8v0.2m1.8 6.7l-0.1-0.1-0.6-0.2-0.7-0.3-0.5-0.3-0.6-0.2-0.6-0.3-0.6-0.3-0.6-0.2-0.8-0.3-0.5-0.3-0.6-0.2-0.5-0.2-0.6-0.2-0.6-0.3-0.1-0.1m5.2-8.1v0.2m-1.6 36.8l-1-0.2m-3.7-1l-0.9-0.3m7.8 2l1.1 0.2m3.6 0.6l1.3 0.2m8.5 1l-0.6-0.1-1.4-0.1m71.5-2.3l1-0.2m-10.4 1.9l1.3-0.2m-8.6 1l0.6-0.1 1.4-0.1"/>
</svg>
