<svg width="140" height="140" viewBox="0 0 140 140" fill="none" xmlns="http://www.w3.org/2000/svg">
<rect x="0.625" y="0.625" width="138.75" height="138.75" rx="15.375" fill="url(#paint0_radial_2369_3242)"/>
<rect x="0.625" y="0.625" width="138.75" height="138.75" rx="15.375" stroke="#2C3448" stroke-width="0.75"/>
<g filter="url(#filter0_di_2369_3242)">
<path d="M51.7847 47.4308L48.4303 59.9517C47.8062 59.7971 47.1821 59.7971 46.5581 59.7971C45.622 59.7971 44.6859 59.9517 43.8278 60.1835C42.3456 60.57 40.9414 61.3429 39.7713 62.2704L30.4883 53.0729C31.6584 51.9909 32.9846 50.9861 34.3887 50.136L35.0908 49.7495C36.729 48.822 38.5232 48.1264 40.3954 47.6627C42.3456 47.1217 44.3738 46.8898 46.4801 46.8898C48.2743 46.8125 50.0685 47.0444 51.7847 47.4308Z" fill="#00ACEB"/>
<path d="M116.376 64.8984C116.766 66.5988 117 68.2992 117 70.0768C117 72.1636 116.688 74.1731 116.22 76.1054C115.752 77.9603 114.972 79.738 114.114 81.361L113.724 82.0566C112.866 83.4478 111.852 84.7618 110.76 85.9211L101.555 76.801C102.569 75.6416 103.271 74.2504 103.661 72.7819C103.895 71.9318 104.051 71.0043 104.051 70.0768C104.051 69.4585 103.973 68.8402 103.895 68.2992L116.376 64.8984Z" fill="#21BCEC"/>
<path d="M90.008 79.8935L86.5756 92.4143C85.0154 91.9506 83.5332 91.3323 82.1291 90.4821L81.427 90.0957C79.7888 89.0909 78.2286 87.9316 76.9025 86.6176L76.2004 85.922C75.6544 85.381 75.1863 84.7627 74.7183 84.1444L83.8453 75.1016L85.8735 77.1884C85.9515 77.2657 86.0295 77.4202 86.1855 77.4975C87.1996 78.5023 88.5258 79.3525 90.008 79.8935Z" fill="#009CDD"/>
<path d="M65.2804 56.1646L56.2314 65.1302L54.2032 63.0433C54.1252 62.9661 54.0472 62.8115 53.8912 62.7342C52.799 61.6521 51.4729 60.802 49.9907 60.2609L53.4231 47.8174C54.9833 48.2811 56.4654 48.8994 57.8696 49.6723L58.5717 50.0588C60.2099 51.0635 61.77 52.2229 63.0962 53.5368L63.7983 54.2324C64.3443 54.928 64.8124 55.5463 65.2804 56.1646Z" fill="#009CDD"/>
<path d="M100.229 77.9609L109.434 87.0811C108.263 88.1631 106.937 89.1679 105.533 90.018L104.831 90.4045C103.193 91.332 101.399 92.0276 99.5265 92.4913C97.5763 93.0323 95.548 93.2642 93.4418 93.2642C91.6476 93.2642 89.8534 93.0323 88.1372 92.6459L91.6476 80.2796C92.2717 80.4342 92.8957 80.4342 93.5198 80.4342C94.4559 80.4342 95.392 80.2796 96.2501 80.0477C97.7323 79.7386 99.1364 78.9657 100.229 77.9609Z" fill="#00ACEB"/>
<path d="M52.1733 78.7332L61.3784 88.0079C60.5203 88.7035 59.5842 89.3991 58.5701 90.0174L57.79 90.4039C56.1518 91.3313 54.3576 92.0269 52.4854 92.4907C50.5352 93.0317 48.5069 93.2636 46.4007 93.2636C44.2945 93.2636 42.2662 92.9544 40.316 92.4907C38.4438 92.0269 36.7276 91.254 35.0894 90.4039L34.3094 89.9401C32.6712 88.9354 31.111 87.776 29.7848 86.4621C28.4587 85.1482 27.2106 83.6024 26.2745 81.9793L25.8844 81.2837C25.1043 79.8925 24.4803 78.424 24.0122 76.8783L36.5716 73.4775C37.1177 74.946 37.9758 76.2599 39.0679 77.4193C40.316 78.6559 41.9542 79.6607 43.7484 80.1244C44.6065 80.3563 45.5426 80.5109 46.4787 80.5109C47.4148 80.5109 48.3509 80.3563 49.209 80.1244C50.3011 79.8152 51.3152 79.3515 52.1733 78.7332Z" fill="#FFA726"/>
<path d="M29.3182 54.2334L38.5232 63.3535C37.5091 64.5129 36.8071 65.9041 36.417 67.3726C36.183 68.2227 36.027 69.1502 36.027 70.0777C36.027 70.696 36.105 71.3143 36.183 71.8553L23.6236 75.3333C23.2335 73.633 22.9995 71.8553 22.9995 70.0777C22.9995 67.9909 23.3115 65.9814 23.7796 64.0491C24.2477 62.1942 25.0277 60.4938 25.8858 58.7935L26.2759 58.0979C27.212 56.7067 28.1481 55.3927 29.3182 54.2334Z" fill="#21BCEC"/>
<path d="M115.985 63.2757L103.347 66.6764C102.801 65.208 101.943 63.8167 100.851 62.7347C99.6028 61.4981 97.9646 60.4933 96.1704 60.0296C95.3123 59.7977 94.3762 59.6431 93.4401 59.6431C92.504 59.6431 91.5679 59.7977 90.7098 60.0296C89.6176 60.3387 88.6035 60.8025 87.6674 61.3435L78.4624 52.0688C79.3205 51.3732 80.2566 50.6776 81.2707 50.0593L82.0508 49.5955C83.689 48.6681 85.4832 47.9725 87.3554 47.5087C89.3056 46.9677 91.3338 46.7358 93.4401 46.7358C95.5463 46.7358 97.5745 47.045 99.5248 47.5087C101.397 47.9725 103.113 48.7454 104.829 49.5955L105.609 50.0593C107.248 51.064 108.808 52.2234 110.134 53.5373C111.46 54.8512 112.708 56.397 113.644 58.0201L114.034 58.7157C114.814 60.2614 115.439 61.7299 115.985 63.2757Z" fill="#FFA726"/>
</g>
<defs>
<filter id="filter0_di_2369_3242" x="18.9995" y="42.7358" width="104.001" height="56.5283" filterUnits="userSpaceOnUse" color-interpolation-filters="sRGB">
<feFlood flood-opacity="0" result="BackgroundImageFix"/>
<feColorMatrix in="SourceAlpha" type="matrix" values="0 0 0 0 0 0 0 0 0 0 0 0 0 0 0 0 0 0 127 0" result="hardAlpha"/>
<feOffset dx="1" dy="1"/>
<feGaussianBlur stdDeviation="2.5"/>
<feComposite in2="hardAlpha" operator="out"/>
<feColorMatrix type="matrix" values="0 0 0 0 0 0 0 0 0 0 0 0 0 0 0 0 0 0 0.5 0"/>
<feBlend mode="normal" in2="BackgroundImageFix" result="effect1_dropShadow_2369_3242"/>
<feBlend mode="normal" in="SourceGraphic" in2="effect1_dropShadow_2369_3242" result="shape"/>
<feColorMatrix in="SourceAlpha" type="matrix" values="0 0 0 0 0 0 0 0 0 0 0 0 0 0 0 0 0 0 127 0" result="hardAlpha"/>
<feOffset dx="1" dy="1"/>
<feGaussianBlur stdDeviation="1"/>
<feComposite in2="hardAlpha" operator="arithmetic" k2="-1" k3="1"/>
<feColorMatrix type="matrix" values="0 0 0 0 1 0 0 0 0 1 0 0 0 0 1 0 0 0 0.3 0"/>
<feBlend mode="normal" in2="shape" result="effect2_innerShadow_2369_3242"/>
</filter>
<radialGradient id="paint0_radial_2369_3242" cx="0" cy="0" r="1" gradientUnits="userSpaceOnUse" gradientTransform="translate(70 1) rotate(90) scale(138 154.373)">
<stop stop-color="#2D2C31"/>
<stop offset="1" stop-color="#0E111A"/>
</radialGradient>
</defs>
</svg>